<svg width="1440" height="1024" viewBox="0 0 1440 1024" fill="none" xmlns="http://www.w3.org/2000/svg">
<g clip-path="url(#clip0_2579_63124)">
<path d="M241.17 1376.65H241.67C241.67 1376.87 241.52 1377.07 241.303 1377.13C241.087 1377.19 240.857 1377.1 240.741 1376.91L241.17 1376.65ZM-241 573.06L-241.429 573.317C-241.57 573.082 -241.495 572.776 -241.26 572.633L-241 573.06ZM241.17 278.83L240.91 278.403C241.064 278.309 241.257 278.306 241.415 278.394C241.572 278.483 241.67 278.649 241.67 278.83H241.17ZM241.17 174.26H241.67C241.67 174.436 241.577 174.6 241.425 174.69L241.17 174.26ZM241.17 -219.43L240.762 -219.719C240.888 -219.897 241.114 -219.973 241.322 -219.906C241.529 -219.841 241.67 -219.648 241.67 -219.43H241.17ZM-241 460.3L-240.745 460.73C-240.948 460.851 -241.208 460.812 -241.368 460.639C-241.528 460.465 -241.544 460.203 -241.408 460.011L-241 460.3ZM241.172 1376.65L241.601 1376.91C241.485 1377.1 241.255 1377.19 241.038 1377.13C240.822 1377.07 240.672 1376.87 240.672 1376.65H241.172ZM723.342 573.06L723.602 572.633C723.837 572.776 723.912 573.082 723.771 573.317L723.342 573.06ZM241.172 278.83H240.672C240.672 278.649 240.77 278.483 240.927 278.394C241.085 278.306 241.278 278.309 241.432 278.403L241.172 278.83ZM241.172 174.26L240.917 174.69C240.765 174.6 240.672 174.436 240.672 174.26H241.172ZM241.172 -219.43H240.672C240.672 -219.648 240.813 -219.841 241.02 -219.906C241.227 -219.973 241.454 -219.897 241.58 -219.719L241.172 -219.43ZM723.342 460.3L723.75 460.011C723.886 460.203 723.87 460.465 723.71 460.639C723.549 460.812 723.29 460.851 723.087 460.73L723.342 460.3ZM897.709 2344H898.209C898.209 2344.22 898.059 2344.42 897.842 2344.48C897.626 2344.54 897.396 2344.45 897.28 2344.26L897.709 2344ZM415.539 1540.42L415.11 1540.68C414.998 1540.49 415.02 1540.25 415.165 1540.09C415.31 1539.92 415.544 1539.87 415.744 1539.96L415.539 1540.42ZM897.709 1246.18L897.448 1245.75C897.603 1245.66 897.796 1245.66 897.954 1245.74C898.111 1245.83 898.209 1246 898.209 1246.18H897.709ZM415.539 1540.41L415.334 1540.87C415.165 1540.79 415.052 1540.63 415.04 1540.44C415.028 1540.26 415.12 1540.08 415.279 1539.98L415.539 1540.41ZM897.709 1141.61H898.209C898.209 1141.79 898.116 1141.95 897.964 1142.04L897.709 1141.61ZM897.709 747.92L897.301 747.631C897.427 747.453 897.653 747.378 897.861 747.444C898.068 747.51 898.209 747.702 898.209 747.92H897.709ZM415.539 1427.65L415.794 1428.08C415.591 1428.2 415.331 1428.16 415.171 1427.99C415.011 1427.82 414.995 1427.55 415.131 1427.36L415.539 1427.65ZM897.711 2344L898.14 2344.26C898.024 2344.45 897.794 2344.54 897.578 2344.48C897.361 2344.42 897.211 2344.22 897.211 2344H897.711ZM1379.88 1540.42L1379.68 1539.96C1379.88 1539.87 1380.11 1539.92 1380.25 1540.09C1380.4 1540.25 1380.42 1540.49 1380.31 1540.68L1379.88 1540.42ZM897.711 1246.18H897.211C897.211 1246 897.309 1245.83 897.466 1245.74C897.624 1245.66 897.817 1245.66 897.971 1245.75L897.711 1246.18ZM1379.88 1540.41L1380.14 1539.98C1380.3 1540.08 1380.39 1540.26 1380.38 1540.44C1380.37 1540.63 1380.26 1540.79 1380.09 1540.87L1379.88 1540.41ZM897.711 1141.61L897.456 1142.04C897.304 1141.95 897.211 1141.79 897.211 1141.61H897.711ZM897.711 747.92H897.211C897.211 747.702 897.352 747.51 897.559 747.444C897.766 747.378 897.993 747.453 898.119 747.631L897.711 747.92ZM1379.88 1427.65L1380.29 1427.36C1380.43 1427.55 1380.41 1427.82 1380.25 1427.99C1380.09 1428.16 1379.83 1428.2 1379.63 1428.08L1379.88 1427.65ZM1736.48 1639.04H1736.98C1736.98 1639.26 1736.83 1639.46 1736.61 1639.52C1736.4 1639.58 1736.17 1639.49 1736.05 1639.3L1736.48 1639.04ZM1254.31 835.46L1253.88 835.717C1253.77 835.53 1253.79 835.291 1253.93 835.128C1254.08 834.965 1254.31 834.914 1254.51 835.004L1254.31 835.46ZM1736.48 541.22L1736.22 540.793C1736.37 540.699 1736.57 540.695 1736.72 540.784C1736.88 540.872 1736.98 541.039 1736.98 541.22H1736.48ZM1254.31 835.45L1254.1 835.906C1253.93 835.83 1253.82 835.667 1253.81 835.481C1253.8 835.296 1253.89 835.12 1254.05 835.023L1254.31 835.45ZM1736.48 436.65H1736.98C1736.98 436.827 1736.89 436.99 1736.73 437.08L1736.48 436.65ZM1736.48 42.96L1736.07 42.6707C1736.2 42.4932 1736.42 42.4175 1736.63 42.4836C1736.84 42.5496 1736.98 42.7422 1736.98 42.96H1736.48ZM1254.31 722.69L1254.56 723.12C1254.36 723.241 1254.1 723.203 1253.94 723.029C1253.78 722.855 1253.76 722.593 1253.9 722.401L1254.31 722.69ZM1736.48 1639.04L1736.91 1639.3C1736.79 1639.49 1736.56 1639.58 1736.35 1639.52C1736.13 1639.46 1735.98 1639.26 1735.98 1639.04H1736.48ZM2218.65 835.46L2218.45 835.004C2218.65 834.914 2218.88 834.965 2219.02 835.128C2219.17 835.291 2219.19 835.53 2219.08 835.717L2218.65 835.46ZM1736.48 541.22H1735.98C1735.98 541.039 1736.08 540.872 1736.24 540.784C1736.39 540.695 1736.59 540.699 1736.74 540.793L1736.48 541.22ZM2218.65 835.45L2218.91 835.023C2219.07 835.12 2219.16 835.296 2219.15 835.481C2219.14 835.667 2219.02 835.83 2218.85 835.906L2218.65 835.45ZM1736.48 436.65L1736.23 437.08C1736.07 436.99 1735.98 436.827 1735.98 436.65H1736.48ZM1736.48 42.96H1735.98C1735.98 42.7422 1736.12 42.5496 1736.33 42.4836C1736.54 42.4175 1736.76 42.4932 1736.89 42.6707L1736.48 42.96ZM2218.65 722.69L2219.06 722.401C2219.19 722.593 2219.18 722.855 2219.02 723.029C2218.86 723.203 2218.6 723.241 2218.4 723.12L2218.65 722.69ZM1049.65 652.82H1050.15C1050.15 653.045 1050 653.242 1049.78 653.302C1049.57 653.362 1049.34 653.27 1049.22 653.077L1049.65 652.82ZM567.48 -150.76L567.052 -150.502C566.91 -150.738 566.986 -151.043 567.22 -151.187L567.48 -150.76ZM1049.65 -445L1049.39 -445.427C1049.54 -445.521 1049.74 -445.524 1049.9 -445.436C1050.05 -445.347 1050.15 -445.181 1050.15 -445H1049.65ZM1049.65 -549.57H1050.15C1050.15 -549.394 1050.06 -549.23 1049.91 -549.14L1049.65 -549.57ZM1049.65 -943.26L1049.24 -943.549C1049.37 -943.727 1049.59 -943.802 1049.8 -943.736C1050.01 -943.67 1050.15 -943.478 1050.15 -943.26H1049.65ZM567.48 -263.53L567.736 -263.1C567.532 -262.979 567.273 -263.018 567.113 -263.191C566.953 -263.365 566.936 -263.627 567.073 -263.819L567.48 -263.53ZM1049.65 652.82L1050.08 653.077C1049.96 653.27 1049.73 653.362 1049.52 653.302C1049.3 653.242 1049.15 653.045 1049.15 652.82H1049.65ZM1531.82 -150.76L1532.08 -151.187C1532.31 -151.043 1532.39 -150.738 1532.25 -150.502L1531.82 -150.76ZM1049.65 -445H1049.15C1049.15 -445.181 1049.25 -445.347 1049.4 -445.436C1049.56 -445.524 1049.75 -445.521 1049.91 -445.427L1049.65 -445ZM1049.65 -549.57L1049.39 -549.14L1049.15 -549.285V-549.57H1049.65ZM1049.65 -943.26H1049.15V-944.829L1050.06 -943.549L1049.65 -943.26ZM1531.82 -263.53L1532.23 -263.819L1531.56 -263.1L1531.82 -263.53ZM240.67 1376.65V789.4H241.67V1376.65H240.67ZM240.965 789.856L-241.205 573.516L-240.795 572.604L241.375 788.944L240.965 789.856ZM-240.571 572.803L241.599 1376.39L240.741 1376.91L-241.429 573.317L-240.571 572.803ZM240.67 789.4V278.83H241.67V789.4H240.67ZM241.43 279.257L-240.74 573.487L-241.26 572.633L240.91 278.403L241.43 279.257ZM240.67 174.26V-219.43H241.67V174.26H240.67ZM241.578 -219.141L-240.592 460.589L-241.408 460.011L240.762 -219.719L241.578 -219.141ZM-241.255 459.87L240.915 173.83L241.425 174.69L-240.745 460.73L-241.255 459.87ZM240.672 1376.65V789.4H241.672V1376.65H240.672ZM240.967 788.944L723.137 572.604L723.547 573.516L241.377 789.856L240.967 788.944ZM723.771 573.317L241.601 1376.91L240.743 1376.39L722.913 572.803L723.771 573.317ZM240.672 789.4V278.83H241.672V789.4H240.672ZM241.432 278.403L723.602 572.633L723.081 573.487L240.911 279.257L241.432 278.403ZM240.672 174.26V-219.43H241.672V174.26H240.672ZM241.58 -219.719L723.75 460.011L722.934 460.589L240.764 -219.141L241.58 -219.719ZM723.087 460.73L240.917 174.69L241.427 173.83L723.597 459.87L723.087 460.73ZM897.209 2344V1756.75H898.209V2344H897.209ZM897.504 1757.21L415.334 1540.88L415.744 1539.96L897.914 1756.29L897.504 1757.21ZM415.968 1540.16L898.138 2343.74L897.28 2344.26L415.11 1540.68L415.968 1540.16ZM897.209 1756.75V1246.18H898.209V1756.75H897.209ZM897.969 1246.61L415.799 1540.84L415.279 1539.98L897.448 1245.75L897.969 1246.61ZM415.744 1539.95L897.914 1756.29L897.504 1757.21L415.334 1540.87L415.744 1539.95ZM897.209 1141.61V747.92H898.209V1141.61H897.209ZM898.117 748.209L415.947 1427.94L415.131 1427.36L897.301 747.631L898.117 748.209ZM415.284 1427.22L897.454 1141.18L897.964 1142.04L415.794 1428.08L415.284 1427.22ZM897.211 2344V1756.75H898.211V2344H897.211ZM897.506 1756.29L1379.68 1539.96L1380.09 1540.88L897.916 1757.21L897.506 1756.29ZM1380.31 1540.68L898.14 2344.26L897.282 2343.74L1379.45 1540.16L1380.31 1540.68ZM897.211 1756.75V1246.18H898.211V1756.75H897.211ZM897.971 1245.75L1380.14 1539.98L1379.62 1540.84L897.45 1246.61L897.971 1245.75ZM1380.09 1540.87L897.916 1757.21L897.506 1756.29L1379.68 1539.95L1380.09 1540.87ZM897.211 1141.61V747.92H898.211V1141.61H897.211ZM898.119 747.631L1380.29 1427.36L1379.47 1427.94L897.303 748.209L898.119 747.631ZM1379.63 1428.08L897.456 1142.04L897.966 1141.18L1380.14 1427.22L1379.63 1428.08ZM1735.98 1639.04V1051.79H1736.98V1639.04H1735.98ZM1736.27 1052.25L1254.1 835.916L1254.51 835.004L1736.68 1051.33L1736.27 1052.25ZM1254.74 835.203L1736.91 1638.78L1736.05 1639.3L1253.88 835.717L1254.74 835.203ZM1735.98 1051.79V541.22H1736.98V1051.79H1735.98ZM1736.74 541.647L1254.57 835.877L1254.05 835.023L1736.22 540.793L1736.74 541.647ZM1254.51 834.994L1736.68 1051.33L1736.27 1052.25L1254.1 835.906L1254.51 834.994ZM1735.98 436.65V42.96H1736.98V436.65H1735.98ZM1736.89 43.2493L1254.72 722.979L1253.9 722.401L1736.07 42.6707L1736.89 43.2493ZM1254.05 722.26L1736.22 436.22L1736.73 437.08L1254.56 723.12L1254.05 722.26ZM1735.98 1639.04V1051.79H1736.98V1639.04H1735.98ZM1736.28 1051.33L2218.45 835.004L2218.85 835.916L1736.69 1052.25L1736.28 1051.33ZM2219.08 835.717L1736.91 1639.3L1736.05 1638.78L2218.22 835.203L2219.08 835.717ZM1735.98 1051.79V541.22H1736.98V1051.79H1735.98ZM1736.74 540.793L2218.91 835.023L2218.39 835.877L1736.22 541.647L1736.74 540.793ZM2218.85 835.906L1736.69 1052.25L1736.28 1051.33L2218.45 834.994L2218.85 835.906ZM1735.98 436.65V42.96H1736.98V436.65H1735.98ZM1736.89 42.6707L2219.06 722.401L2218.24 722.979L1736.07 43.2493L1736.89 42.6707ZM2218.4 723.12L1736.23 437.08L1736.74 436.22L2218.91 722.26L2218.4 723.12ZM1049.15 652.82V65.5698H1050.15V652.82H1049.15ZM1049.45 66.0261L567.276 -150.303L567.685 -151.216L1049.86 65.1135L1049.45 66.0261ZM567.909 -151.017L1050.08 652.563L1049.22 653.077L567.052 -150.502L567.909 -151.017ZM1049.15 65.5698V-445H1050.15V65.5698H1049.15ZM1049.91 -444.573L567.741 -150.333L567.22 -151.187L1049.39 -445.427L1049.91 -444.573ZM1049.15 -549.57V-943.26H1050.15V-549.57H1049.15ZM1050.06 -942.971L567.888 -263.241L567.073 -263.819L1049.24 -943.549L1050.06 -942.971ZM567.225 -263.96L1049.4 -550L1049.91 -549.14L567.736 -263.1L567.225 -263.96ZM1049.15 652.82V65.5698H1050.15V652.82H1049.15ZM1049.44 65.1135L1531.61 -151.216L1532.02 -150.303L1049.85 66.0261L1049.44 65.1135ZM1532.25 -150.502L1050.08 653.077L1049.22 652.563L1531.39 -151.017L1532.25 -150.502ZM1049.15 65.5698V-445H1050.15V65.5698H1049.15ZM1049.91 -445.427L1532.08 -151.187L1531.56 -150.333L1049.39 -444.573L1049.91 -445.427ZM1049.15 -549.57V-943.26H1050.15V-549.57H1049.15ZM1050.06 -943.549L1532.23 -263.819L1531.41 -263.241L1049.24 -942.971L1050.06 -943.549ZM1531.56 -263.1L1049.39 -549.14L1049.9 -550L1532.07 -263.96L1531.56 -263.1Z" fill="url(#paint0_linear_2579_63124)"/>
</g>
<defs>
<linearGradient id="paint0_linear_2579_63124" x1="1035.5" y1="-61.5" x2="874.155" y2="1129.5" gradientUnits="userSpaceOnUse">
<stop offset="0.180897" stop-color="#FFFDD8" stop-opacity="0"/>
<stop offset="0.335096" stop-color="#EC6BA1" stop-opacity="0.14"/>
<stop offset="0.557932" stop-color="#D672EF" stop-opacity="0.2"/>
<stop offset="1" stop-color="#8BF3F9" stop-opacity="0"/>
</linearGradient>
<clipPath id="clip0_2579_63124">
<rect width="1440" height="1024" fill="white"/>
</clipPath>
</defs>
</svg>